<?xml version="1.0" standalone="no"?>
<!DOCTYPE svg PUBLIC "-//W3C//DTD SVG 20010904//EN"
 "http://www.w3.org/TR/2001/REC-SVG-20010904/DTD/svg10.dtd">
<svg version="1.0" xmlns="http://www.w3.org/2000/svg"
 width="2100.000000pt" height="2100.000000pt" viewBox="0 0 2100.000000 2100.000000"
 preserveAspectRatio="xMidYMid meet">

<g transform="translate(0.000000,2100.000000) scale(0.100000,-0.100000)"
fill="#000000" stroke="none">
<path d="M5993 18458 c2 -7 231 -712 508 -1565 277 -854 506 -1553 509 -1553
3 0 152 279 330 620 l323 620 934 0 933 0 -5 -1337 c-6 -1327 -25 -8444 -25
-9078 l0 -331 -410 -354 c-226 -194 -409 -357 -408 -360 2 -3 408 -588 903
-1298 517 -742 906 -1292 915 -1292 9 0 398 550 915 1292 495 710 901 1295
903 1298 1 3 -182 166 -408 360 l-410 354 0 331 c0 634 -19 7751 -25 9078 l-5
1337 933 0 934 0 323 -620 c178 -341 326 -620 330 -620 3 0 232 699 509 1553
277 853 506 1558 508 1565 4 9 -902 12 -4507 12 -3605 0 -4511 -3 -4507 -12z"/>
</g>
</svg>
